# xmcd
#
# Track frame offsets:
#	150
#	18631
#	35298
#	49131
#	67151
#	90357
#	114378
#	130878
#	148465
#	168559
#	184825
#	203973
#	219722
#	242684
#	260624
#	281848
#	301891
#	323465
#	344226
#
# Disc length: 4786 seconds
#
# Revision: 2
# Processed by: cddbd v1.5.2PL0 Copyright (c) Steve Scherf et al.
# Submitted via: EZCDAudioConverter 1.3.4.1
#
DISCID=2d12b013
DTITLE=Various  - The New Sound Of Gospel Disc 2
DYEAR=2006
DGENRE=Gospel
TTITLE0=Kirk Franklin - Looking For You
TTITLE1=Seven - There It Is
TTITLE2=Deitrick Haddon - It's Over Now
TTITLE3=Chevelle Franklyn - Salvation
TTITLE4=Bishop John Francis - All I Need
TTITLE5=Donald Lawrence And The Tri-City Singers - Usher Me
TTITLE6=Virtue - Follow Me
TTITLE7=Four Kornerz - More Than Life
TTITLE8=Charles and Taylor - Better Than Life
TTITLE9=Darwin Hobbs - All Sides
TTITLE10=Shadrach - Born Again
TTITLE11=Ramiyah - Just Stop
TTITLE12=Motor City Mass Choir - It Is Good
TTITLE13=Lisa Mcclendon - Move On Over
TTITLE14=Raymond And Co - Everything
TTITLE15=Joe Pace and The Colorado Mass Choir - Good To Me
TTITLE16=J-4 Twenty 3 - Above All
TTITLE17=Michelle Williams - Love Thang
TTITLE18=Mary Mary - Shackles (Praise You)
EXTD=
EXTT0=
EXTT1=
EXTT2=
EXTT3=
EXTT4=
EXTT5=
EXTT6=
EXTT7=
EXTT8=
EXTT9=
EXTT10=
EXTT11=
EXTT12=
EXTT13=
EXTT14=
EXTT15=
EXTT16=
EXTT17=
EXTT18=
PLAYORDER=
